<svg xmlns="http://www.w3.org/2000/svg" viewBox="200 150 650 700" width="650" height="700">
  <defs>
    <linearGradient id="g1" x1="0%" y1="0%" x2="100%" y2="100%">
      <stop offset="0%" stop-color="#e7fbff"/>
      <stop offset="55%" stop-color="#78ddff"/>
      <stop offset="100%" stop-color="#0b7cff"/>
    </linearGradient>
    <linearGradient id="g2" x1="0%" y1="20%" x2="100%" y2="80%">
      <stop offset="0%" stop-color="#dff9ff"/>
      <stop offset="50%" stop-color="#4fd3ff"/>
      <stop offset="100%" stop-color="#0057d9"/>
    </linearGradient>
    <linearGradient id="g3" x1="10%" y1="10%" x2="90%" y2="90%">
      <stop offset="0%" stop-color="#19c2ff"/>
      <stop offset="100%" stop-color="#003aa8"/>
    </linearGradient>
  </defs>

  <g>
    <path d="M743 216 C824 274 868 390 850 498 C842 550 819 604 783 650"
          fill="none" stroke="url(#g2)" stroke-width="18" stroke-linecap="round"/>
    <path d="M280 672 C219 611 182 518 186 422 C191 315 246 234 328 184 C449 111 602 123 710 210"
          fill="none" stroke="url(#g2)" stroke-width="20" stroke-linecap="round"/>
    <path d="M764 706 C693 789 576 835 461 825 C372 817 293 777 236 711"
          fill="none" stroke="url(#g2)" stroke-width="18" stroke-linecap="round"/>

    <circle cx="515" cy="494" r="280" fill="none" stroke="#0f8ae8" stroke-width="6" opacity="0.9" stroke-dasharray="1200 120" stroke-linecap="round"/>

    <path d="M351 664 L544 206 C549 194 565 194 570 206 L622 413 L571 428 L545 334 L422 574 Z"
          fill="url(#g1)" stroke="#6ccfff" stroke-width="4"/>

    <path d="M307 674 C385 611 477 561 610 504 C661 482 724 458 782 451 L724 675 C714 714 687 747 647 765 C570 801 466 794 401 748 C381 734 365 717 350 693 L393 663 C425 708 478 734 545 731 C598 728 644 714 664 676 C672 660 677 642 682 618 L705 520 C575 547 468 604 353 727 Z"
          fill="url(#g3)" stroke="#0046b3" stroke-width="6"/>

    <path d="M374 636 C449 588 533 552 629 512"
          fill="none" stroke="#ebfeff" stroke-width="20" stroke-linecap="round" opacity="0.85"/>

    <circle cx="292" cy="307" r="8" fill="#20c7ff"/>
    <circle cx="319" cy="285" r="6" fill="#19aef1"/>
    <circle cx="790" cy="361" r="6" fill="#20c7ff"/>
    <circle cx="836" cy="542" r="10" fill="#0f8ae8"/>
    <circle cx="808" cy="579" r="5" fill="#0f8ae8"/>
  </g>
</svg>
